<mxfile host="app.diagrams.net" modified="2020-06-25T18:33:26.203Z" agent="5.0 (Macintosh; Intel Mac OS X 10_15_5) AppleWebKit/537.36 (KHTML, like Gecko) Chrome/83.0.4103.116 Safari/537.36" etag="_BUVB5FPWSzAmemXDiV9" version="13.3.4" type="github" pages="2">
  <diagram id="BKTEssdF6qr65OEh8YFK" name="Page-1">
    <mxGraphModel dx="1106" dy="645" grid="1" gridSize="10" guides="1" tooltips="1" connect="1" arrows="1" fold="1" page="1" pageScale="1" pageWidth="850" pageHeight="1100" math="0" shadow="0">
      <root>
        <mxCell id="0" />
        <mxCell id="1" parent="0" />
        <mxCell id="OPOUw2QIjI7Iy3AGO7ah-33" style="edgeStyle=orthogonalEdgeStyle;rounded=0;orthogonalLoop=1;jettySize=auto;html=1;exitX=0.75;exitY=1;exitDx=0;exitDy=0;entryX=0.75;entryY=0;entryDx=0;entryDy=0;" parent="1" source="OPOUw2QIjI7Iy3AGO7ah-2" target="OPOUw2QIjI7Iy3AGO7ah-3" edge="1">
          <mxGeometry relative="1" as="geometry">
            <Array as="points">
              <mxPoint x="440" y="70" />
            </Array>
          </mxGeometry>
        </mxCell>
        <mxCell id="OPOUw2QIjI7Iy3AGO7ah-38" style="edgeStyle=orthogonalEdgeStyle;rounded=0;orthogonalLoop=1;jettySize=auto;html=1;entryX=0.575;entryY=0.016;entryDx=0;entryDy=0;entryPerimeter=0;" parent="1" target="OPOUw2QIjI7Iy3AGO7ah-9" edge="1">
          <mxGeometry relative="1" as="geometry">
            <mxPoint x="160" y="70" as="sourcePoint" />
            <Array as="points">
              <mxPoint x="160" y="145" />
              <mxPoint x="162" y="145" />
            </Array>
          </mxGeometry>
        </mxCell>
        <mxCell id="OPOUw2QIjI7Iy3AGO7ah-2" value="User Interface" style="rounded=0;whiteSpace=wrap;html=1;" parent="1" vertex="1">
          <mxGeometry x="40" y="40" width="490" height="30" as="geometry" />
        </mxCell>
        <mxCell id="OPOUw2QIjI7Iy3AGO7ah-11" style="edgeStyle=orthogonalEdgeStyle;rounded=0;orthogonalLoop=1;jettySize=auto;html=1;exitX=0.25;exitY=1;exitDx=0;exitDy=0;entryX=1;entryY=0;entryDx=0;entryDy=0;" parent="1" source="OPOUw2QIjI7Iy3AGO7ah-3" target="OPOUw2QIjI7Iy3AGO7ah-9" edge="1">
          <mxGeometry relative="1" as="geometry" />
        </mxCell>
        <mxCell id="OPOUw2QIjI7Iy3AGO7ah-12" style="edgeStyle=orthogonalEdgeStyle;rounded=0;orthogonalLoop=1;jettySize=auto;html=1;exitX=0.75;exitY=1;exitDx=0;exitDy=0;entryX=0.5;entryY=0;entryDx=0;entryDy=0;" parent="1" source="OPOUw2QIjI7Iy3AGO7ah-3" target="OPOUw2QIjI7Iy3AGO7ah-8" edge="1">
          <mxGeometry relative="1" as="geometry" />
        </mxCell>
        <mxCell id="OPOUw2QIjI7Iy3AGO7ah-3" value="request" style="rounded=0;whiteSpace=wrap;html=1;" parent="1" vertex="1">
          <mxGeometry x="170" y="110" width="360" height="30" as="geometry" />
        </mxCell>
        <mxCell id="OPOUw2QIjI7Iy3AGO7ah-8" value="FileHandler" style="ellipse;whiteSpace=wrap;html=1;" parent="1" vertex="1">
          <mxGeometry x="330" y="180" width="140" height="50" as="geometry" />
        </mxCell>
        <mxCell id="OPOUw2QIjI7Iy3AGO7ah-20" value="EvenStore" style="ellipse;whiteSpace=wrap;html=1;" parent="1" vertex="1">
          <mxGeometry x="390" y="270" width="140" height="50" as="geometry" />
        </mxCell>
        <mxCell id="OPOUw2QIjI7Iy3AGO7ah-23" value="EvenHandler" style="ellipse;whiteSpace=wrap;html=1;" parent="1" vertex="1">
          <mxGeometry x="230" y="270" width="140" height="50" as="geometry" />
        </mxCell>
        <mxCell id="OPOUw2QIjI7Iy3AGO7ah-36" style="edgeStyle=orthogonalEdgeStyle;rounded=0;orthogonalLoop=1;jettySize=auto;html=1;exitX=0.5;exitY=1;exitDx=0;exitDy=0;entryX=0.5;entryY=0;entryDx=0;entryDy=0;entryPerimeter=0;" parent="1" source="OPOUw2QIjI7Iy3AGO7ah-9" target="OPOUw2QIjI7Iy3AGO7ah-17" edge="1">
          <mxGeometry relative="1" as="geometry" />
        </mxCell>
        <mxCell id="OPOUw2QIjI7Iy3AGO7ah-40" style="edgeStyle=orthogonalEdgeStyle;rounded=0;orthogonalLoop=1;jettySize=auto;html=1;exitX=0;exitY=0;exitDx=0;exitDy=0;entryX=0.108;entryY=1.056;entryDx=0;entryDy=0;entryPerimeter=0;" parent="1" source="OPOUw2QIjI7Iy3AGO7ah-9" target="OPOUw2QIjI7Iy3AGO7ah-2" edge="1">
          <mxGeometry relative="1" as="geometry" />
        </mxCell>
        <mxCell id="OPOUw2QIjI7Iy3AGO7ah-9" value="Query Service" style="ellipse;whiteSpace=wrap;html=1;" parent="1" vertex="1">
          <mxGeometry x="70" y="220" width="160" height="50" as="geometry" />
        </mxCell>
        <mxCell id="OPOUw2QIjI7Iy3AGO7ah-15" value="Even Store" style="strokeWidth=2;html=1;shape=mxgraph.flowchart.database;whiteSpace=wrap;" parent="1" vertex="1">
          <mxGeometry x="380" y="360" width="150" height="60" as="geometry" />
        </mxCell>
        <mxCell id="OPOUw2QIjI7Iy3AGO7ah-39" style="edgeStyle=orthogonalEdgeStyle;rounded=0;orthogonalLoop=1;jettySize=auto;html=1;exitX=0.5;exitY=0;exitDx=0;exitDy=0;exitPerimeter=0;entryX=0;entryY=1;entryDx=0;entryDy=0;" parent="1" source="OPOUw2QIjI7Iy3AGO7ah-16" target="OPOUw2QIjI7Iy3AGO7ah-9" edge="1">
          <mxGeometry relative="1" as="geometry">
            <Array as="points">
              <mxPoint x="93" y="360" />
            </Array>
          </mxGeometry>
        </mxCell>
        <mxCell id="OPOUw2QIjI7Iy3AGO7ah-16" value="" style="strokeWidth=2;html=1;shape=mxgraph.flowchart.database;whiteSpace=wrap;" parent="1" vertex="1">
          <mxGeometry x="60" y="360" width="60" height="60" as="geometry" />
        </mxCell>
        <mxCell id="OPOUw2QIjI7Iy3AGO7ah-17" value="" style="strokeWidth=2;html=1;shape=mxgraph.flowchart.database;whiteSpace=wrap;" parent="1" vertex="1">
          <mxGeometry x="120" y="360" width="60" height="60" as="geometry" />
        </mxCell>
        <mxCell id="OPOUw2QIjI7Iy3AGO7ah-19" value="" style="strokeWidth=2;html=1;shape=mxgraph.flowchart.database;whiteSpace=wrap;" parent="1" vertex="1">
          <mxGeometry x="180" y="360" width="60" height="60" as="geometry" />
        </mxCell>
        <mxCell id="OPOUw2QIjI7Iy3AGO7ah-28" value="" style="edgeStyle=segmentEdgeStyle;endArrow=classic;html=1;exitX=0.5;exitY=1;exitDx=0;exitDy=0;entryX=0.5;entryY=0;entryDx=0;entryDy=0;entryPerimeter=0;" parent="1" source="OPOUw2QIjI7Iy3AGO7ah-23" target="OPOUw2QIjI7Iy3AGO7ah-19" edge="1">
          <mxGeometry width="50" height="50" relative="1" as="geometry">
            <mxPoint x="245" y="400" as="sourcePoint" />
            <mxPoint x="200" y="350" as="targetPoint" />
            <Array as="points">
              <mxPoint x="300" y="330" />
              <mxPoint x="210" y="330" />
            </Array>
          </mxGeometry>
        </mxCell>
        <mxCell id="OPOUw2QIjI7Iy3AGO7ah-29" value="" style="edgeStyle=segmentEdgeStyle;endArrow=classic;html=1;exitX=0.5;exitY=1;exitDx=0;exitDy=0;entryX=0.533;entryY=0;entryDx=0;entryDy=0;entryPerimeter=0;" parent="1" source="OPOUw2QIjI7Iy3AGO7ah-20" target="OPOUw2QIjI7Iy3AGO7ah-15" edge="1">
          <mxGeometry width="50" height="50" relative="1" as="geometry">
            <mxPoint x="375" y="330" as="sourcePoint" />
            <mxPoint x="470" y="350" as="targetPoint" />
            <Array as="points" />
          </mxGeometry>
        </mxCell>
        <mxCell id="OPOUw2QIjI7Iy3AGO7ah-31" value="" style="edgeStyle=segmentEdgeStyle;endArrow=classic;html=1;exitX=0.695;exitY=0.967;exitDx=0;exitDy=0;entryX=0.5;entryY=0;entryDx=0;entryDy=0;exitPerimeter=0;" parent="1" source="OPOUw2QIjI7Iy3AGO7ah-8" target="OPOUw2QIjI7Iy3AGO7ah-20" edge="1">
          <mxGeometry width="50" height="50" relative="1" as="geometry">
            <mxPoint x="590" y="130" as="sourcePoint" />
            <mxPoint x="590" y="230" as="targetPoint" />
            <Array as="points">
              <mxPoint x="427" y="250" />
              <mxPoint x="460" y="250" />
            </Array>
          </mxGeometry>
        </mxCell>
        <mxCell id="OPOUw2QIjI7Iy3AGO7ah-32" value="" style="edgeStyle=segmentEdgeStyle;endArrow=classic;html=1;exitX=0;exitY=1;exitDx=0;exitDy=0;entryX=0.5;entryY=0;entryDx=0;entryDy=0;" parent="1" source="OPOUw2QIjI7Iy3AGO7ah-8" target="OPOUw2QIjI7Iy3AGO7ah-23" edge="1">
          <mxGeometry width="50" height="50" relative="1" as="geometry">
            <mxPoint x="420" y="230" as="sourcePoint" />
            <mxPoint x="420" y="330" as="targetPoint" />
            <Array as="points">
              <mxPoint x="350" y="240" />
              <mxPoint x="300" y="240" />
            </Array>
          </mxGeometry>
        </mxCell>
        <mxCell id="OPOUw2QIjI7Iy3AGO7ah-41" value="Query Table" style="text;html=1;strokeColor=none;fillColor=none;align=center;verticalAlign=middle;whiteSpace=wrap;rounded=0;" parent="1" vertex="1">
          <mxGeometry x="110" y="430" width="80" height="20" as="geometry" />
        </mxCell>
        <mxCell id="YRMGGNUvjd1UCv-VyneW-1" value="" style="shape=step;perimeter=stepPerimeter;whiteSpace=wrap;html=1;fixedSize=1;" vertex="1" parent="1">
          <mxGeometry x="150" y="530" width="120" height="80" as="geometry" />
        </mxCell>
      </root>
    </mxGraphModel>
  </diagram>
  <diagram id="S0aR54LQWZQ2x_PyATXb" name="Page-2">
    <mxGraphModel dx="1106" dy="413" grid="1" gridSize="10" guides="1" tooltips="1" connect="1" arrows="1" fold="1" page="1" pageScale="1" pageWidth="850" pageHeight="1100" math="0" shadow="0">
      <root>
        <mxCell id="hgFlTB9xdZB-NyhKWPaA-0" />
        <mxCell id="hgFlTB9xdZB-NyhKWPaA-1" parent="hgFlTB9xdZB-NyhKWPaA-0" />
      </root>
    </mxGraphModel>
  </diagram>
</mxfile>
